<mxfile host="app.diagrams.net" agent="Mozilla/5.0 (Windows NT 10.0; Win64; x64) AppleWebKit/537.36 (KHTML, like Gecko) Chrome/129.0.0.0 Safari/537.36" version="24.7.16">
  <diagram name="Page-1" id="2a216829-ef6e-dabb-86c1-c78162f3ba2b">
    <mxGraphModel dx="1909" dy="1027" grid="1" gridSize="10" guides="1" tooltips="1" connect="1" arrows="1" fold="1" page="1" pageScale="1" pageWidth="850" pageHeight="1100" background="none" math="0" shadow="0">
      <root>
        <mxCell id="0" />
        <mxCell id="1" parent="0" />
        <mxCell id="7a84cebc1def654-1" value="" style="shape=mxgraph.bpmn.shape;html=1;verticalLabelPosition=bottom;labelBackgroundColor=#ffffff;verticalAlign=top;perimeter=ellipsePerimeter;outline=standard;symbol=general;" parent="1" vertex="1">
          <mxGeometry x="110" y="440" width="50" height="50" as="geometry" />
        </mxCell>
        <mxCell id="7a84cebc1def654-36" style="edgeStyle=orthogonalEdgeStyle;rounded=0;html=1;jettySize=auto;orthogonalLoop=1;" parent="1" source="7a84cebc1def654-1" edge="1">
          <mxGeometry relative="1" as="geometry">
            <mxPoint x="260" y="465.0000000000001" as="targetPoint" />
          </mxGeometry>
        </mxCell>
        <mxCell id="X71FGkDf6fn_2zIbJ8EK-3" value="Preparación de Insumos" style="swimlane;whiteSpace=wrap;html=1;startSize=50;" parent="1" vertex="1">
          <mxGeometry x="198" y="230" width="4520" height="1860" as="geometry">
            <mxRectangle x="360" y="570" width="180" height="30" as="alternateBounds" />
          </mxGeometry>
        </mxCell>
        <mxCell id="X71FGkDf6fn_2zIbJ8EK-21" value="4. Primer uso de &quot;EvaluaciónPR21.xlsm&quot;" style="swimlane;whiteSpace=wrap;html=1;" parent="X71FGkDf6fn_2zIbJ8EK-3" vertex="1">
          <mxGeometry x="300" y="630" width="370" height="100" as="geometry">
            <mxRectangle x="490" y="70" width="230" height="30" as="alternateBounds" />
          </mxGeometry>
        </mxCell>
        <mxCell id="X71FGkDf6fn_2zIbJ8EK-22" value="&lt;div style=&quot;text-align: justify;&quot;&gt;&lt;ol&gt;&lt;li&gt;Creamos las carpetas en la ruta de la evaluación semanal&lt;/li&gt;&lt;/ol&gt;&lt;/div&gt;" style="text;html=1;align=left;verticalAlign=middle;whiteSpace=wrap;rounded=0;" parent="X71FGkDf6fn_2zIbJ8EK-21" vertex="1">
          <mxGeometry x="10" y="30" width="350" height="60" as="geometry" />
        </mxCell>
        <mxCell id="hybQcctw-D88qzmDJWD1-32" value="Carpeta Datos" style="swimlane;horizontal=0;whiteSpace=wrap;html=1;" vertex="1" parent="X71FGkDf6fn_2zIbJ8EK-3">
          <mxGeometry x="40" y="120" width="1330" height="460" as="geometry" />
        </mxCell>
        <mxCell id="hybQcctw-D88qzmDJWD1-26" style="edgeStyle=orthogonalEdgeStyle;rounded=0;orthogonalLoop=1;jettySize=auto;html=1;exitX=0.75;exitY=1;exitDx=0;exitDy=0;entryX=0.5;entryY=0;entryDx=0;entryDy=0;" edge="1" parent="hybQcctw-D88qzmDJWD1-32" source="X71FGkDf6fn_2zIbJ8EK-9" target="hybQcctw-D88qzmDJWD1-24">
          <mxGeometry relative="1" as="geometry" />
        </mxCell>
        <mxCell id="hybQcctw-D88qzmDJWD1-27" style="edgeStyle=orthogonalEdgeStyle;rounded=0;orthogonalLoop=1;jettySize=auto;html=1;exitX=0.25;exitY=1;exitDx=0;exitDy=0;entryX=0.5;entryY=0;entryDx=0;entryDy=0;" edge="1" parent="hybQcctw-D88qzmDJWD1-32" source="X71FGkDf6fn_2zIbJ8EK-9" target="hybQcctw-D88qzmDJWD1-5">
          <mxGeometry relative="1" as="geometry" />
        </mxCell>
        <mxCell id="X71FGkDf6fn_2zIbJ8EK-9" value="1. Corremos el Código &quot;PR_21.py&quot;" style="swimlane;whiteSpace=wrap;html=1;" parent="hybQcctw-D88qzmDJWD1-32" vertex="1">
          <mxGeometry x="90" y="60" width="370" height="230" as="geometry">
            <mxRectangle x="50" y="70" width="230" height="30" as="alternateBounds" />
          </mxGeometry>
        </mxCell>
        <mxCell id="X71FGkDf6fn_2zIbJ8EK-10" value="&lt;div style=&quot;text-align: justify;&quot;&gt;&lt;span style=&quot;background-color: initial;&quot;&gt;- Input: rutas de la carpeta de descarga de información, intervalos de fecha.&lt;/span&gt;&lt;/div&gt;" style="text;html=1;align=left;verticalAlign=middle;whiteSpace=wrap;rounded=0;" parent="X71FGkDf6fn_2zIbJ8EK-9" vertex="1">
          <mxGeometry x="10" y="30" width="350" height="30" as="geometry" />
        </mxCell>
        <mxCell id="X71FGkDf6fn_2zIbJ8EK-12" value="&lt;div style=&quot;text-align: justify;&quot;&gt;&lt;span style=&quot;background-color: initial;&quot;&gt;- Output:&amp;nbsp;&lt;/span&gt;&lt;/div&gt;&lt;div&gt;&lt;ul&gt;&lt;li style=&quot;text-align: justify;&quot;&gt;7 libros &quot;&lt;i&gt;CumplimientoRPF_DDMM.xlsx&lt;/i&gt;&quot;. Estos contienen los datos de frecuencia y potencia de cada día por segundo de las unidades o centrales.&lt;/li&gt;&lt;li style=&quot;text-align: justify;&quot;&gt;7 libros &quot;&lt;i&gt;Día_DD_MM_AAAA.xslx&lt;/i&gt;&quot;. Estos contienen los codigos de medidores de las unidades o centrales presentes en &quot;&lt;i&gt;CumplimientoRPF_DDMM.xlsx&lt;/i&gt;&quot;.&lt;/li&gt;&lt;li style=&quot;text-align: justify;&quot;&gt;7 libros &quot;&lt;i&gt;FrecuenciasRPF_DDMM.xlsx&lt;/i&gt;&quot;. Estos contienen las frecuencias cada segundo de San Juan.&lt;/li&gt;&lt;/ul&gt;&lt;/div&gt;" style="text;html=1;align=left;verticalAlign=middle;whiteSpace=wrap;rounded=0;" parent="X71FGkDf6fn_2zIbJ8EK-9" vertex="1">
          <mxGeometry x="10" y="70" width="330" height="150" as="geometry" />
        </mxCell>
        <mxCell id="X71FGkDf6fn_2zIbJ8EK-15" value="2. Libros &quot;Data_AGC_DDMM.xslx&quot;" style="swimlane;whiteSpace=wrap;html=1;" parent="hybQcctw-D88qzmDJWD1-32" vertex="1">
          <mxGeometry x="510" y="90" width="370" height="150" as="geometry">
            <mxRectangle x="490" y="70" width="230" height="30" as="alternateBounds" />
          </mxGeometry>
        </mxCell>
        <mxCell id="X71FGkDf6fn_2zIbJ8EK-17" value="&lt;div style=&quot;text-align: justify;&quot;&gt;&lt;span style=&quot;background-color: initial;&quot;&gt;- En el modulo intranet de &quot;Factores de Utilización&quot; verificamos que el tipo de proceso para la semana en evaluación esten en &quot;Manual&quot;.&lt;/span&gt;&lt;/div&gt;&lt;div style=&quot;text-align: justify;&quot;&gt;&lt;span style=&quot;background-color: initial;&quot;&gt;- Luego en el modulo intratet de &quot;Validar Información AGC&quot; en &quot;Exportar Kumply&quot; descargamos la información de las urs (excepto de ventanilla ENL-005) para cada día de la semana en evaluación.&amp;nbsp;&amp;nbsp;&lt;/span&gt;&lt;/div&gt;" style="text;html=1;align=left;verticalAlign=middle;whiteSpace=wrap;rounded=0;" parent="X71FGkDf6fn_2zIbJ8EK-15" vertex="1">
          <mxGeometry x="10" y="30" width="330" height="120" as="geometry" />
        </mxCell>
        <mxCell id="X71FGkDf6fn_2zIbJ8EK-19" value="3. Archivo &quot;Delegaciones.csv&quot;" style="swimlane;whiteSpace=wrap;html=1;" parent="hybQcctw-D88qzmDJWD1-32" vertex="1">
          <mxGeometry x="920" y="30" width="370" height="120" as="geometry">
            <mxRectangle x="490" y="70" width="230" height="30" as="alternateBounds" />
          </mxGeometry>
        </mxCell>
        <mxCell id="X71FGkDf6fn_2zIbJ8EK-20" value="&lt;div style=&quot;text-align: justify;&quot;&gt;&lt;span style=&quot;background-color: initial;&quot;&gt;- Revisamos los correos con las declaraciones de delegación de los agentes, se usa el codigo &quot;Reactiva.py&quot; y se guarda la información en una carpeta &quot;Delegaciones&quot;. En base al formato de la semana pasada de evaluación se construye las delegación de la semana en evaluación&lt;/span&gt;&lt;/div&gt;" style="text;html=1;align=left;verticalAlign=middle;whiteSpace=wrap;rounded=0;" parent="X71FGkDf6fn_2zIbJ8EK-19" vertex="1">
          <mxGeometry x="10" y="30" width="350" height="90" as="geometry" />
        </mxCell>
        <mxCell id="hybQcctw-D88qzmDJWD1-5" value="CumplimientoRPF_bruto" style="ellipse;html=1;whiteSpace=wrap;" vertex="1" parent="hybQcctw-D88qzmDJWD1-32">
          <mxGeometry x="110" y="370" width="150" height="80" as="geometry" />
        </mxCell>
        <mxCell id="hybQcctw-D88qzmDJWD1-24" value="FrecuenciasSanJuan" style="ellipse;whiteSpace=wrap;html=1;" vertex="1" parent="hybQcctw-D88qzmDJWD1-32">
          <mxGeometry x="310" y="370" width="120" height="80" as="geometry" />
        </mxCell>
        <mxCell id="hybQcctw-D88qzmDJWD1-28" value="Información AGC" style="ellipse;whiteSpace=wrap;html=1;" vertex="1" parent="hybQcctw-D88qzmDJWD1-32">
          <mxGeometry x="635" y="302.5" width="120" height="80" as="geometry" />
        </mxCell>
        <mxCell id="hybQcctw-D88qzmDJWD1-29" style="edgeStyle=orthogonalEdgeStyle;rounded=0;orthogonalLoop=1;jettySize=auto;html=1;exitX=0.5;exitY=1;exitDx=0;exitDy=0;entryX=0.5;entryY=0;entryDx=0;entryDy=0;" edge="1" parent="hybQcctw-D88qzmDJWD1-32" source="X71FGkDf6fn_2zIbJ8EK-17" target="hybQcctw-D88qzmDJWD1-28">
          <mxGeometry relative="1" as="geometry">
            <mxPoint x="685" y="295" as="targetPoint" />
          </mxGeometry>
        </mxCell>
        <mxCell id="hybQcctw-D88qzmDJWD1-30" value="Delegaciones" style="ellipse;whiteSpace=wrap;html=1;" vertex="1" parent="hybQcctw-D88qzmDJWD1-32">
          <mxGeometry x="1030" y="315" width="120" height="80" as="geometry" />
        </mxCell>
        <mxCell id="hybQcctw-D88qzmDJWD1-31" style="edgeStyle=orthogonalEdgeStyle;rounded=0;orthogonalLoop=1;jettySize=auto;html=1;exitX=0.5;exitY=1;exitDx=0;exitDy=0;entryX=0.5;entryY=0;entryDx=0;entryDy=0;" edge="1" parent="hybQcctw-D88qzmDJWD1-32" source="X71FGkDf6fn_2zIbJ8EK-20" target="hybQcctw-D88qzmDJWD1-30">
          <mxGeometry relative="1" as="geometry" />
        </mxCell>
        <mxCell id="hybQcctw-D88qzmDJWD1-33" value="Carpeta Data Entrada Matlab" style="swimlane;horizontal=0;whiteSpace=wrap;html=1;" vertex="1" parent="X71FGkDf6fn_2zIbJ8EK-3">
          <mxGeometry x="110" y="780" width="1300" height="530" as="geometry" />
        </mxCell>
        <mxCell id="hybQcctw-D88qzmDJWD1-269" style="edgeStyle=orthogonalEdgeStyle;rounded=0;orthogonalLoop=1;jettySize=auto;html=1;entryX=0;entryY=0.5;entryDx=0;entryDy=0;" edge="1" parent="hybQcctw-D88qzmDJWD1-33" source="hybQcctw-D88qzmDJWD1-82" target="hybQcctw-D88qzmDJWD1-94">
          <mxGeometry relative="1" as="geometry" />
        </mxCell>
        <mxCell id="hybQcctw-D88qzmDJWD1-82" value="5. Segundo uso de &quot;EvaluaciónPR21.xlsm&quot;" style="swimlane;whiteSpace=wrap;html=1;" vertex="1" parent="hybQcctw-D88qzmDJWD1-33">
          <mxGeometry x="270" y="95" width="300" height="95" as="geometry">
            <mxRectangle x="490" y="70" width="230" height="30" as="alternateBounds" />
          </mxGeometry>
        </mxCell>
        <mxCell id="hybQcctw-D88qzmDJWD1-83" value="&lt;div style=&quot;text-align: justify;&quot;&gt;&lt;span style=&quot;background-color: initial;&quot;&gt;Usamos la macro de la hoja &quot;Envio_PF&quot;, ruteamos en la carpeta donde nos encontramos en &quot;Data_PF&quot;.&lt;/span&gt;&lt;br&gt;&lt;/div&gt;" style="text;html=1;align=left;verticalAlign=middle;whiteSpace=wrap;rounded=0;" vertex="1" parent="hybQcctw-D88qzmDJWD1-82">
          <mxGeometry x="10" y="30" width="280" height="50" as="geometry" />
        </mxCell>
        <mxCell id="hybQcctw-D88qzmDJWD1-86" style="edgeStyle=orthogonalEdgeStyle;rounded=0;orthogonalLoop=1;jettySize=auto;html=1;entryX=0;entryY=0.75;entryDx=0;entryDy=0;" edge="1" parent="hybQcctw-D88qzmDJWD1-33" source="hybQcctw-D88qzmDJWD1-85" target="hybQcctw-D88qzmDJWD1-82">
          <mxGeometry relative="1" as="geometry" />
        </mxCell>
        <mxCell id="hybQcctw-D88qzmDJWD1-85" value="DE_SGO.xlsx" style="ellipse;whiteSpace=wrap;html=1;" vertex="1" parent="hybQcctw-D88qzmDJWD1-33">
          <mxGeometry x="70" y="157.5" width="90" height="80" as="geometry" />
        </mxCell>
        <mxCell id="hybQcctw-D88qzmDJWD1-92" style="edgeStyle=orthogonalEdgeStyle;rounded=0;orthogonalLoop=1;jettySize=auto;html=1;entryX=0;entryY=0.5;entryDx=0;entryDy=0;exitX=0.5;exitY=1;exitDx=0;exitDy=0;" edge="1" parent="hybQcctw-D88qzmDJWD1-33" source="hybQcctw-D88qzmDJWD1-89" target="hybQcctw-D88qzmDJWD1-82">
          <mxGeometry relative="1" as="geometry" />
        </mxCell>
        <mxCell id="hybQcctw-D88qzmDJWD1-272" style="edgeStyle=orthogonalEdgeStyle;rounded=0;orthogonalLoop=1;jettySize=auto;html=1;entryX=0;entryY=0;entryDx=0;entryDy=0;" edge="1" parent="hybQcctw-D88qzmDJWD1-33" source="hybQcctw-D88qzmDJWD1-89" target="hybQcctw-D88qzmDJWD1-270">
          <mxGeometry relative="1" as="geometry" />
        </mxCell>
        <mxCell id="hybQcctw-D88qzmDJWD1-89" value="CumplimientoRPF_bruto" style="rectangule;html=1;whiteSpace=wrap;" vertex="1" parent="hybQcctw-D88qzmDJWD1-33">
          <mxGeometry x="40" y="30" width="150" height="40" as="geometry" />
        </mxCell>
        <mxCell id="hybQcctw-D88qzmDJWD1-94" value="Resumen_Resultado.xlsx" style="rectangule;whiteSpace=wrap;html=1;" vertex="1" parent="hybQcctw-D88qzmDJWD1-33">
          <mxGeometry x="610" y="95" width="160" height="40" as="geometry" />
        </mxCell>
        <mxCell id="hybQcctw-D88qzmDJWD1-96" value="RPF_Despacho_Ejecutado_DDMM.xlsx" style="rectangule;whiteSpace=wrap;html=1;" vertex="1" parent="hybQcctw-D88qzmDJWD1-33">
          <mxGeometry x="610" y="150" width="220" height="40" as="geometry" />
        </mxCell>
        <mxCell id="hybQcctw-D88qzmDJWD1-97" style="edgeStyle=orthogonalEdgeStyle;rounded=0;orthogonalLoop=1;jettySize=auto;html=1;exitX=1;exitY=0.75;exitDx=0;exitDy=0;entryX=-0.004;entryY=0.395;entryDx=0;entryDy=0;entryPerimeter=0;" edge="1" parent="hybQcctw-D88qzmDJWD1-33" source="hybQcctw-D88qzmDJWD1-82" target="hybQcctw-D88qzmDJWD1-96">
          <mxGeometry relative="1" as="geometry" />
        </mxCell>
        <mxCell id="hybQcctw-D88qzmDJWD1-100" style="edgeStyle=orthogonalEdgeStyle;rounded=0;orthogonalLoop=1;jettySize=auto;html=1;entryX=0;entryY=0.5;entryDx=0;entryDy=0;" edge="1" parent="hybQcctw-D88qzmDJWD1-33" source="X71FGkDf6fn_2zIbJ8EK-26" target="hybQcctw-D88qzmDJWD1-99">
          <mxGeometry relative="1" as="geometry" />
        </mxCell>
        <mxCell id="X71FGkDf6fn_2zIbJ8EK-26" value="6. DataUnid.csv" style="swimlane;whiteSpace=wrap;html=1;" parent="hybQcctw-D88qzmDJWD1-33" vertex="1">
          <mxGeometry x="40" y="290" width="230" height="100" as="geometry">
            <mxRectangle x="490" y="70" width="230" height="30" as="alternateBounds" />
          </mxGeometry>
        </mxCell>
        <mxCell id="X71FGkDf6fn_2zIbJ8EK-27" value="&lt;div style=&quot;text-align: justify;&quot;&gt;&lt;div&gt;Contiene las potencias efectivas y potencias mínimas de las centrales. Normalmente se copia de la semana pasada y se revisa si hubo algún cambio en la potencia efectiva&lt;/div&gt;&lt;/div&gt;" style="text;html=1;align=left;verticalAlign=middle;whiteSpace=wrap;rounded=0;" parent="X71FGkDf6fn_2zIbJ8EK-26" vertex="1">
          <mxGeometry x="10" y="30" width="200" height="60" as="geometry" />
        </mxCell>
        <mxCell id="hybQcctw-D88qzmDJWD1-99" value="DataUnid_General" style="ellipse;whiteSpace=wrap;html=1;" vertex="1" parent="hybQcctw-D88qzmDJWD1-33">
          <mxGeometry x="320" y="315" width="110" height="50" as="geometry" />
        </mxCell>
        <mxCell id="hybQcctw-D88qzmDJWD1-101" value="Delegaciones" style="ellipse;whiteSpace=wrap;html=1;" vertex="1" parent="hybQcctw-D88qzmDJWD1-33">
          <mxGeometry x="1140" y="15" width="120" height="80" as="geometry" />
        </mxCell>
        <mxCell id="hybQcctw-D88qzmDJWD1-273" style="edgeStyle=orthogonalEdgeStyle;rounded=0;orthogonalLoop=1;jettySize=auto;html=1;entryX=0.5;entryY=0;entryDx=0;entryDy=0;" edge="1" parent="hybQcctw-D88qzmDJWD1-33" source="hybQcctw-D88qzmDJWD1-102" target="hybQcctw-D88qzmDJWD1-270">
          <mxGeometry relative="1" as="geometry" />
        </mxCell>
        <mxCell id="hybQcctw-D88qzmDJWD1-102" value="Información AGC" style="rectangule;whiteSpace=wrap;html=1;" vertex="1" parent="hybQcctw-D88qzmDJWD1-33">
          <mxGeometry x="965" y="28" width="120" height="35" as="geometry" />
        </mxCell>
        <mxCell id="hybQcctw-D88qzmDJWD1-152" style="edgeStyle=orthogonalEdgeStyle;rounded=0;orthogonalLoop=1;jettySize=auto;html=1;entryX=0;entryY=0.5;entryDx=0;entryDy=0;" edge="1" parent="hybQcctw-D88qzmDJWD1-33" source="hybQcctw-D88qzmDJWD1-106" target="hybQcctw-D88qzmDJWD1-151">
          <mxGeometry relative="1" as="geometry" />
        </mxCell>
        <mxCell id="hybQcctw-D88qzmDJWD1-106" value="7. Lista_URS.csv" style="swimlane;whiteSpace=wrap;html=1;" vertex="1" parent="hybQcctw-D88qzmDJWD1-33">
          <mxGeometry x="40" y="395" width="230" height="100" as="geometry">
            <mxRectangle x="490" y="70" width="230" height="30" as="alternateBounds" />
          </mxGeometry>
        </mxCell>
        <mxCell id="hybQcctw-D88qzmDJWD1-107" value="&lt;div style=&quot;text-align: justify;&quot;&gt;&lt;div&gt;Contiene las URS calificadas. Se copia de la semana pasada y se revisa si hubo algún cambio.&lt;/div&gt;&lt;/div&gt;" style="text;html=1;align=left;verticalAlign=middle;whiteSpace=wrap;rounded=0;" vertex="1" parent="hybQcctw-D88qzmDJWD1-106">
          <mxGeometry x="10" y="30" width="200" height="60" as="geometry" />
        </mxCell>
        <mxCell id="hybQcctw-D88qzmDJWD1-151" value="Lista_URS" style="ellipse;whiteSpace=wrap;html=1;" vertex="1" parent="hybQcctw-D88qzmDJWD1-33">
          <mxGeometry x="310" y="420" width="110" height="50" as="geometry" />
        </mxCell>
        <mxCell id="hybQcctw-D88qzmDJWD1-276" style="edgeStyle=orthogonalEdgeStyle;rounded=0;orthogonalLoop=1;jettySize=auto;html=1;exitX=0.25;exitY=1;exitDx=0;exitDy=0;" edge="1" parent="hybQcctw-D88qzmDJWD1-33" source="hybQcctw-D88qzmDJWD1-270">
          <mxGeometry relative="1" as="geometry">
            <mxPoint x="952" y="240" as="targetPoint" />
          </mxGeometry>
        </mxCell>
        <mxCell id="hybQcctw-D88qzmDJWD1-270" value="9. Cuarto uso de &quot;EvaluaciónPR21.xlsm&quot;" style="swimlane;whiteSpace=wrap;html=1;" vertex="1" parent="hybQcctw-D88qzmDJWD1-33">
          <mxGeometry x="890" y="130" width="270" height="80" as="geometry">
            <mxRectangle x="490" y="70" width="230" height="30" as="alternateBounds" />
          </mxGeometry>
        </mxCell>
        <mxCell id="hybQcctw-D88qzmDJWD1-271" value="&lt;div style=&quot;text-align: justify;&quot;&gt;&lt;span style=&quot;background-color: initial;&quot;&gt;Usamos el Boton &quot;Potencia/Frecuencia&quot; y &quot;DataAGC&quot; para obtener de los archivos principales solo información de CDA&lt;/span&gt;&lt;br&gt;&lt;/div&gt;" style="text;html=1;align=left;verticalAlign=middle;whiteSpace=wrap;rounded=0;" vertex="1" parent="hybQcctw-D88qzmDJWD1-270">
          <mxGeometry x="5" y="27.5" width="250" height="50" as="geometry" />
        </mxCell>
        <mxCell id="hybQcctw-D88qzmDJWD1-103" style="edgeStyle=orthogonalEdgeStyle;rounded=0;orthogonalLoop=1;jettySize=auto;html=1;entryX=0.5;entryY=0;entryDx=0;entryDy=0;" edge="1" parent="hybQcctw-D88qzmDJWD1-33" target="hybQcctw-D88qzmDJWD1-102">
          <mxGeometry relative="1" as="geometry">
            <mxPoint x="631" y="-290" as="sourcePoint" />
            <mxPoint x="1022" y="15.5" as="targetPoint" />
            <Array as="points">
              <mxPoint x="631" y="-122" />
              <mxPoint x="1026" y="-122" />
              <mxPoint x="1026" y="28" />
            </Array>
          </mxGeometry>
        </mxCell>
        <mxCell id="hybQcctw-D88qzmDJWD1-274" value="CumplimientoRPF_CDA" style="rectangule;html=1;whiteSpace=wrap;dashed=1;" vertex="1" parent="hybQcctw-D88qzmDJWD1-33">
          <mxGeometry x="872" y="242.5" width="150" height="40" as="geometry" />
        </mxCell>
        <mxCell id="hybQcctw-D88qzmDJWD1-275" value="Información AGC _CDA" style="rectangule;whiteSpace=wrap;html=1;dashed=1;" vertex="1" parent="hybQcctw-D88qzmDJWD1-33">
          <mxGeometry x="1052" y="245" width="138" height="35" as="geometry" />
        </mxCell>
        <mxCell id="hybQcctw-D88qzmDJWD1-277" style="edgeStyle=orthogonalEdgeStyle;rounded=0;orthogonalLoop=1;jettySize=auto;html=1;entryX=0.5;entryY=0;entryDx=0;entryDy=0;" edge="1" parent="hybQcctw-D88qzmDJWD1-33" target="hybQcctw-D88qzmDJWD1-275">
          <mxGeometry relative="1" as="geometry">
            <mxPoint x="1122" y="210" as="sourcePoint" />
          </mxGeometry>
        </mxCell>
        <mxCell id="hybQcctw-D88qzmDJWD1-104" style="edgeStyle=orthogonalEdgeStyle;rounded=0;orthogonalLoop=1;jettySize=auto;html=1;entryX=0.5;entryY=0;entryDx=0;entryDy=0;" edge="1" parent="X71FGkDf6fn_2zIbJ8EK-3" source="hybQcctw-D88qzmDJWD1-30" target="hybQcctw-D88qzmDJWD1-101">
          <mxGeometry relative="1" as="geometry">
            <Array as="points">
              <mxPoint x="1130" y="620" />
              <mxPoint x="1310" y="620" />
            </Array>
          </mxGeometry>
        </mxCell>
        <mxCell id="hybQcctw-D88qzmDJWD1-105" style="edgeStyle=orthogonalEdgeStyle;rounded=0;orthogonalLoop=1;jettySize=auto;html=1;exitX=0.5;exitY=1;exitDx=0;exitDy=0;entryX=0.5;entryY=0;entryDx=0;entryDy=0;" edge="1" parent="X71FGkDf6fn_2zIbJ8EK-3" source="hybQcctw-D88qzmDJWD1-5" target="hybQcctw-D88qzmDJWD1-89">
          <mxGeometry relative="1" as="geometry" />
        </mxCell>
        <mxCell id="hybQcctw-D88qzmDJWD1-153" value="8. Tercer uso de &quot;EvaluaciónPR21.xlsm&quot;" style="swimlane;whiteSpace=wrap;html=1;" vertex="1" parent="X71FGkDf6fn_2zIbJ8EK-3">
          <mxGeometry x="1510" y="440" width="250" height="80" as="geometry">
            <mxRectangle x="490" y="70" width="230" height="30" as="alternateBounds" />
          </mxGeometry>
        </mxCell>
        <mxCell id="hybQcctw-D88qzmDJWD1-154" value="&lt;div style=&quot;text-align: justify;&quot;&gt;&lt;ol&gt;&lt;li&gt;Usamos la macro &quot;Formato BESS&quot;.&lt;/li&gt;&lt;/ol&gt;&lt;/div&gt;" style="text;html=1;align=left;verticalAlign=middle;whiteSpace=wrap;rounded=0;" vertex="1" parent="hybQcctw-D88qzmDJWD1-153">
          <mxGeometry y="30" width="250" height="50" as="geometry" />
        </mxCell>
        <mxCell id="hybQcctw-D88qzmDJWD1-155" value="Carpeta BESS" style="swimlane;horizontal=0;whiteSpace=wrap;html=1;" vertex="1" parent="X71FGkDf6fn_2zIbJ8EK-3">
          <mxGeometry x="1830" y="120" width="630" height="1190" as="geometry" />
        </mxCell>
        <mxCell id="hybQcctw-D88qzmDJWD1-206" value="Carpeta Yarucaya" style="swimlane;horizontal=0;whiteSpace=wrap;html=1;" vertex="1" parent="hybQcctw-D88qzmDJWD1-155">
          <mxGeometry x="110" y="260" width="450" height="180" as="geometry" />
        </mxCell>
        <mxCell id="hybQcctw-D88qzmDJWD1-218" value="Carpeta Base, Media y Punta" style="swimlane;whiteSpace=wrap;html=1;" vertex="1" parent="hybQcctw-D88qzmDJWD1-206">
          <mxGeometry x="30" y="7.5" width="252.5" height="132.5" as="geometry" />
        </mxCell>
        <mxCell id="hybQcctw-D88qzmDJWD1-219" value="&lt;div style=&quot;text-align: justify;&quot;&gt;&lt;br&gt;&lt;/div&gt;" style="text;html=1;align=center;verticalAlign=middle;resizable=0;points=[];autosize=1;strokeColor=none;fillColor=none;" vertex="1" parent="hybQcctw-D88qzmDJWD1-218">
          <mxGeometry x="230" y="70" width="20" height="30" as="geometry" />
        </mxCell>
        <mxCell id="hybQcctw-D88qzmDJWD1-220" value="&lt;div style=&quot;text-align: justify;&quot;&gt;&lt;span style=&quot;background-color: initial;&quot;&gt;Se genera los archivos Data_PF_DDMM.csvque contiene información de Potencia y Frecuencia de la BESS y de la central asociada a ella. Esta se genera fuera de estas carpeta, asi mismo se le debe colocar la tensión en bornes a los archivos generados&lt;/span&gt;&lt;/div&gt;" style="text;html=1;align=center;verticalAlign=middle;whiteSpace=wrap;rounded=0;" vertex="1" parent="hybQcctw-D88qzmDJWD1-218">
          <mxGeometry x="7.5" y="25" width="232.5" height="105" as="geometry" />
        </mxCell>
        <mxCell id="hybQcctw-D88qzmDJWD1-207" value="Carpeta Chilca 1" style="swimlane;horizontal=0;whiteSpace=wrap;html=1;" vertex="1" parent="hybQcctw-D88qzmDJWD1-155">
          <mxGeometry x="110" y="460" width="450" height="200" as="geometry" />
        </mxCell>
        <mxCell id="hybQcctw-D88qzmDJWD1-222" value="Carpeta Base, Media y Punta" style="swimlane;whiteSpace=wrap;html=1;" vertex="1" parent="hybQcctw-D88qzmDJWD1-207">
          <mxGeometry x="30" y="10" width="252.5" height="90" as="geometry" />
        </mxCell>
        <mxCell id="hybQcctw-D88qzmDJWD1-223" value="&lt;div style=&quot;text-align: justify;&quot;&gt;&lt;br&gt;&lt;/div&gt;" style="text;html=1;align=center;verticalAlign=middle;resizable=0;points=[];autosize=1;strokeColor=none;fillColor=none;" vertex="1" parent="hybQcctw-D88qzmDJWD1-222">
          <mxGeometry x="230" y="70" width="20" height="30" as="geometry" />
        </mxCell>
        <mxCell id="hybQcctw-D88qzmDJWD1-224" value="&lt;div style=&quot;text-align: justify;&quot;&gt;&lt;span style=&quot;background-color: initial;&quot;&gt;Se genera los archivos Data_PF_DDMM.csvque contiene información de Potencia y Frecuencia de la BESS y de la central asociada a ella.&lt;/span&gt;&lt;/div&gt;" style="text;html=1;align=center;verticalAlign=middle;whiteSpace=wrap;rounded=0;" vertex="1" parent="hybQcctw-D88qzmDJWD1-222">
          <mxGeometry x="7.5" y="25" width="232.5" height="65" as="geometry" />
        </mxCell>
        <mxCell id="hybQcctw-D88qzmDJWD1-208" value="Carpeta 8 de agosto" style="swimlane;horizontal=0;whiteSpace=wrap;html=1;" vertex="1" parent="hybQcctw-D88qzmDJWD1-155">
          <mxGeometry x="110" y="680" width="450" height="200" as="geometry" />
        </mxCell>
        <mxCell id="hybQcctw-D88qzmDJWD1-225" value="Carpeta Base, Media y Punta" style="swimlane;whiteSpace=wrap;html=1;" vertex="1" parent="hybQcctw-D88qzmDJWD1-208">
          <mxGeometry x="30" y="10" width="252.5" height="90" as="geometry" />
        </mxCell>
        <mxCell id="hybQcctw-D88qzmDJWD1-226" value="&lt;div style=&quot;text-align: justify;&quot;&gt;&lt;br&gt;&lt;/div&gt;" style="text;html=1;align=center;verticalAlign=middle;resizable=0;points=[];autosize=1;strokeColor=none;fillColor=none;" vertex="1" parent="hybQcctw-D88qzmDJWD1-225">
          <mxGeometry x="230" y="70" width="20" height="30" as="geometry" />
        </mxCell>
        <mxCell id="hybQcctw-D88qzmDJWD1-227" value="&lt;div style=&quot;text-align: justify;&quot;&gt;&lt;span style=&quot;background-color: initial;&quot;&gt;Se genera los archivos Data_PF_DDMM.csvque contiene información de Potencia y Frecuencia de la BESS y de la central asociada a ella.&lt;/span&gt;&lt;/div&gt;" style="text;html=1;align=center;verticalAlign=middle;whiteSpace=wrap;rounded=0;" vertex="1" parent="hybQcctw-D88qzmDJWD1-225">
          <mxGeometry x="7.5" y="25" width="232.5" height="65" as="geometry" />
        </mxCell>
        <mxCell id="hybQcctw-D88qzmDJWD1-209" value="Carpeta 8 de Kallpa" style="swimlane;horizontal=0;whiteSpace=wrap;html=1;" vertex="1" parent="hybQcctw-D88qzmDJWD1-155">
          <mxGeometry x="110" y="910" width="450" height="230" as="geometry" />
        </mxCell>
        <mxCell id="hybQcctw-D88qzmDJWD1-231" value="Carpeta Base, Media y Punta" style="swimlane;whiteSpace=wrap;html=1;" vertex="1" parent="hybQcctw-D88qzmDJWD1-209">
          <mxGeometry x="30" y="10" width="252.5" height="90" as="geometry" />
        </mxCell>
        <mxCell id="hybQcctw-D88qzmDJWD1-232" value="&lt;div style=&quot;text-align: justify;&quot;&gt;&lt;br&gt;&lt;/div&gt;" style="text;html=1;align=center;verticalAlign=middle;resizable=0;points=[];autosize=1;strokeColor=none;fillColor=none;" vertex="1" parent="hybQcctw-D88qzmDJWD1-231">
          <mxGeometry x="230" y="70" width="20" height="30" as="geometry" />
        </mxCell>
        <mxCell id="hybQcctw-D88qzmDJWD1-233" value="&lt;div style=&quot;text-align: justify;&quot;&gt;&lt;span style=&quot;background-color: initial;&quot;&gt;Se genera los archivos Data_PF_DDMM.csvque contiene información de Potencia y Frecuencia de la BESS y de la central asociada a ella.&lt;/span&gt;&lt;/div&gt;" style="text;html=1;align=center;verticalAlign=middle;whiteSpace=wrap;rounded=0;" vertex="1" parent="hybQcctw-D88qzmDJWD1-231">
          <mxGeometry x="7.5" y="25" width="232.5" height="65" as="geometry" />
        </mxCell>
        <mxCell id="hybQcctw-D88qzmDJWD1-210" value="" style="endArrow=none;html=1;rounded=0;" edge="1" parent="hybQcctw-D88qzmDJWD1-155">
          <mxGeometry width="50" height="50" relative="1" as="geometry">
            <mxPoint x="50" y="1030" as="sourcePoint" />
            <mxPoint x="50" y="140" as="targetPoint" />
          </mxGeometry>
        </mxCell>
        <mxCell id="hybQcctw-D88qzmDJWD1-212" value="" style="endArrow=classic;html=1;rounded=0;entryX=0;entryY=0.25;entryDx=0;entryDy=0;" edge="1" parent="hybQcctw-D88qzmDJWD1-155" target="hybQcctw-D88qzmDJWD1-216">
          <mxGeometry width="50" height="50" relative="1" as="geometry">
            <mxPoint x="50" y="140" as="sourcePoint" />
            <mxPoint x="200" y="80" as="targetPoint" />
          </mxGeometry>
        </mxCell>
        <mxCell id="hybQcctw-D88qzmDJWD1-235" value="" style="endArrow=classic;html=1;rounded=0;entryX=0;entryY=0.5;entryDx=0;entryDy=0;" edge="1" parent="hybQcctw-D88qzmDJWD1-155" target="hybQcctw-D88qzmDJWD1-225">
          <mxGeometry width="50" height="50" relative="1" as="geometry">
            <mxPoint x="50" y="770" as="sourcePoint" />
            <mxPoint x="100" y="720" as="targetPoint" />
          </mxGeometry>
        </mxCell>
        <mxCell id="hybQcctw-D88qzmDJWD1-236" value="" style="endArrow=classic;html=1;rounded=0;entryX=0;entryY=0.5;entryDx=0;entryDy=0;" edge="1" parent="hybQcctw-D88qzmDJWD1-155" target="hybQcctw-D88qzmDJWD1-222">
          <mxGeometry width="50" height="50" relative="1" as="geometry">
            <mxPoint x="50" y="530" as="sourcePoint" />
            <mxPoint x="100" y="480" as="targetPoint" />
          </mxGeometry>
        </mxCell>
        <mxCell id="hybQcctw-D88qzmDJWD1-237" value="" style="endArrow=classic;html=1;rounded=0;entryX=0;entryY=0.5;entryDx=0;entryDy=0;" edge="1" parent="hybQcctw-D88qzmDJWD1-155" target="hybQcctw-D88qzmDJWD1-218">
          <mxGeometry width="50" height="50" relative="1" as="geometry">
            <mxPoint x="50" y="370" as="sourcePoint" />
            <mxPoint x="110" y="320" as="targetPoint" />
          </mxGeometry>
        </mxCell>
        <mxCell id="hybQcctw-D88qzmDJWD1-211" value="" style="endArrow=none;html=1;rounded=0;exitX=1;exitY=0.5;exitDx=0;exitDy=0;" edge="1" parent="X71FGkDf6fn_2zIbJ8EK-3" source="hybQcctw-D88qzmDJWD1-153">
          <mxGeometry width="50" height="50" relative="1" as="geometry">
            <mxPoint x="1790" y="500" as="sourcePoint" />
            <mxPoint x="1880" y="480" as="targetPoint" />
          </mxGeometry>
        </mxCell>
        <mxCell id="hybQcctw-D88qzmDJWD1-156" value="Carpeta Ventanilla" style="swimlane;horizontal=0;whiteSpace=wrap;html=1;" vertex="1" parent="X71FGkDf6fn_2zIbJ8EK-3">
          <mxGeometry x="1940" y="170" width="450" height="200" as="geometry" />
        </mxCell>
        <mxCell id="hybQcctw-D88qzmDJWD1-213" value="Carpeta Base, Media y Punta" style="swimlane;whiteSpace=wrap;html=1;" vertex="1" parent="hybQcctw-D88qzmDJWD1-156">
          <mxGeometry x="30" y="20" width="215" height="100" as="geometry" />
        </mxCell>
        <mxCell id="hybQcctw-D88qzmDJWD1-214" value="&lt;div style=&quot;text-align: justify;&quot;&gt;&lt;br&gt;&lt;/div&gt;" style="text;html=1;align=center;verticalAlign=middle;resizable=0;points=[];autosize=1;strokeColor=none;fillColor=none;" vertex="1" parent="hybQcctw-D88qzmDJWD1-213">
          <mxGeometry x="230" y="70" width="20" height="30" as="geometry" />
        </mxCell>
        <mxCell id="hybQcctw-D88qzmDJWD1-216" value="&lt;div style=&quot;text-align: justify;&quot;&gt;&lt;span style=&quot;background-color: initial;&quot;&gt;Se genera los archivos Data_PF_DDMM.csvque contiene información de Potencia y Frecuencia de la BESS y de la central asociada a ella&amp;nbsp;&lt;/span&gt;&lt;/div&gt;" style="text;html=1;align=center;verticalAlign=middle;whiteSpace=wrap;rounded=0;" vertex="1" parent="hybQcctw-D88qzmDJWD1-213">
          <mxGeometry x="7.5" y="25" width="200" height="75" as="geometry" />
        </mxCell>
        <mxCell id="hybQcctw-D88qzmDJWD1-234" value="" style="endArrow=classic;html=1;rounded=0;entryX=0;entryY=0.5;entryDx=0;entryDy=0;" edge="1" parent="X71FGkDf6fn_2zIbJ8EK-3" target="hybQcctw-D88qzmDJWD1-231">
          <mxGeometry width="50" height="50" relative="1" as="geometry">
            <mxPoint x="1880" y="1150" as="sourcePoint" />
            <mxPoint x="2100" y="1120" as="targetPoint" />
          </mxGeometry>
        </mxCell>
        <mxCell id="hybQcctw-D88qzmDJWD1-240" value="Carpeta CDA" style="swimlane;horizontal=0;whiteSpace=wrap;html=1;" vertex="1" parent="X71FGkDf6fn_2zIbJ8EK-3">
          <mxGeometry x="110" y="1390" width="630" height="260" as="geometry" />
        </mxCell>
        <mxCell id="hybQcctw-D88qzmDJWD1-278" value="CumplimientoRPF_CDA" style="rectangule;html=1;whiteSpace=wrap;" vertex="1" parent="hybQcctw-D88qzmDJWD1-240">
          <mxGeometry x="62" y="30" width="150" height="40" as="geometry" />
        </mxCell>
        <mxCell id="hybQcctw-D88qzmDJWD1-279" value="Información AGC _CDA" style="rectangule;whiteSpace=wrap;html=1;" vertex="1" parent="hybQcctw-D88qzmDJWD1-240">
          <mxGeometry x="242" y="32.5" width="138" height="35" as="geometry" />
        </mxCell>
        <mxCell id="hybQcctw-D88qzmDJWD1-282" value="DataUnid_CDA" style="ellipse;whiteSpace=wrap;html=1;" vertex="1" parent="hybQcctw-D88qzmDJWD1-240">
          <mxGeometry x="52" y="120" width="110" height="50" as="geometry" />
        </mxCell>
        <mxCell id="hybQcctw-D88qzmDJWD1-262" value="" style="endArrow=none;html=1;rounded=0;exitX=1;exitY=0.5;exitDx=0;exitDy=0;" edge="1" parent="X71FGkDf6fn_2zIbJ8EK-3">
          <mxGeometry width="50" height="50" relative="1" as="geometry">
            <mxPoint x="2800" y="470" as="sourcePoint" />
            <mxPoint x="2920" y="470" as="targetPoint" />
          </mxGeometry>
        </mxCell>
        <mxCell id="hybQcctw-D88qzmDJWD1-280" style="edgeStyle=orthogonalEdgeStyle;rounded=0;orthogonalLoop=1;jettySize=auto;html=1;entryX=0.5;entryY=0;entryDx=0;entryDy=0;" edge="1" parent="X71FGkDf6fn_2zIbJ8EK-3" source="hybQcctw-D88qzmDJWD1-274" target="hybQcctw-D88qzmDJWD1-278">
          <mxGeometry relative="1" as="geometry">
            <Array as="points">
              <mxPoint x="592" y="1042" />
              <mxPoint x="592" y="1340" />
              <mxPoint x="247" y="1340" />
            </Array>
          </mxGeometry>
        </mxCell>
        <mxCell id="hybQcctw-D88qzmDJWD1-281" style="edgeStyle=orthogonalEdgeStyle;rounded=0;orthogonalLoop=1;jettySize=auto;html=1;entryX=0.5;entryY=0;entryDx=0;entryDy=0;" edge="1" parent="X71FGkDf6fn_2zIbJ8EK-3" source="hybQcctw-D88qzmDJWD1-275" target="hybQcctw-D88qzmDJWD1-279">
          <mxGeometry relative="1" as="geometry">
            <Array as="points">
              <mxPoint x="1231" y="1080" />
              <mxPoint x="652" y="1080" />
              <mxPoint x="652" y="1370" />
              <mxPoint x="421" y="1370" />
            </Array>
          </mxGeometry>
        </mxCell>
        <mxCell id="X71FGkDf6fn_2zIbJ8EK-24" value="5. Periodos NE" style="swimlane;whiteSpace=wrap;html=1;" parent="1" vertex="1">
          <mxGeometry x="3780" y="490" width="370" height="235" as="geometry">
            <mxRectangle x="490" y="70" width="230" height="30" as="alternateBounds" />
          </mxGeometry>
        </mxCell>
        <mxCell id="X71FGkDf6fn_2zIbJ8EK-25" value="&lt;div style=&quot;text-align: justify;&quot;&gt;&lt;ol&gt;&lt;li&gt;Creación de carpetas, rutear en la semana de evaluación.&lt;/li&gt;&lt;li&gt;Ejectuar macro de hoja &quot;Envio_PF&quot;.&lt;/li&gt;&lt;li&gt;Creación de Formatos BESS&lt;/li&gt;&lt;li&gt;Creación de Formato CDA&lt;/li&gt;&lt;li&gt;Creación de Formato La Virgen&lt;/li&gt;&lt;li&gt;Borrar codigos del archivo principal&lt;/li&gt;&lt;/ol&gt;&lt;/div&gt;" style="text;html=1;align=left;verticalAlign=middle;whiteSpace=wrap;rounded=0;" parent="X71FGkDf6fn_2zIbJ8EK-24" vertex="1">
          <mxGeometry x="10" y="30" width="350" height="160" as="geometry" />
        </mxCell>
      </root>
    </mxGraphModel>
  </diagram>
</mxfile>
